<svg width="29" height="28" viewBox="0 0 29 28" fill="none" xmlns="http://www.w3.org/2000/svg">
<rect width="29" height="28" fill="#F5F5F5"/>
<g id="Blog" clip-path="url(#clip0_0_1)">
<rect width="1440" height="1024" transform="translate(-197 -48)" fill="white"/>
<g id="search bar">
<rect id="Rectangle 18" x="-18" y="-11" width="493.75" height="50" rx="25" fill="#EDEDED"/>
<path id="Vector" d="M27.876 24.0296L22.5206 18.6742C22.2789 18.4325 21.9513 18.2982 21.6075 18.2982H20.7319C22.2145 16.4021 23.0954 14.0171 23.0954 11.4227C23.0954 5.25085 18.0945 0.25 11.9227 0.25C5.75085 0.25 0.75 5.25085 0.75 11.4227C0.75 17.5945 5.75085 22.5954 11.9227 22.5954C14.5171 22.5954 16.9021 21.7145 18.7982 20.2319V21.1075C18.7982 21.4513 18.9325 21.7789 19.1742 22.0206L24.5296 27.376C25.0345 27.8809 25.851 27.8809 26.3505 27.376L27.8706 25.8559C28.3756 25.351 28.3756 24.5345 27.876 24.0296ZM11.9227 18.2982C8.12505 18.2982 5.04719 15.2257 5.04719 11.4227C5.04719 7.62505 8.11968 4.54719 11.9227 4.54719C15.7203 4.54719 18.7982 7.61968 18.7982 11.4227C18.7982 15.2203 15.7257 18.2982 11.9227 18.2982Z" fill="black" fill-opacity="0.6"/>
</g>
</g>
<defs>
<clipPath id="clip0_0_1">
<rect width="1440" height="1024" fill="white" transform="translate(-197 -48)"/>
</clipPath>
</defs>
</svg>
