<svg width="50" height="49" viewBox="0 0 50 49" fill="none" xmlns="http://www.w3.org/2000/svg">
<g id="&#240;&#159;&#166;&#134; icon &#34;Upload&#34;">
<path id="Vector" d="M28.3323 36.7482H20.6749C19.4019 36.7482 18.3777 35.724 18.3777 34.451V18.3705H9.9833C8.27953 18.3705 7.42765 16.3126 8.63369 15.1066L23.1923 0.538409C23.9101 -0.17947 25.0875 -0.17947 25.8053 0.538409L40.3735 15.1066C41.5795 16.3126 40.7276 18.3705 39.0239 18.3705H30.6295V34.451C30.6295 35.724 29.6053 36.7482 28.3323 36.7482ZM49.0072 35.9825V46.7028C49.0072 47.9758 47.983 49 46.71 49H2.29721C1.02417 49 0 47.9758 0 46.7028V35.9825C0 34.7094 1.02417 33.6853 2.29721 33.6853H15.3147V34.451C15.3147 37.4087 17.7172 39.8112 20.6749 39.8112H28.3323C31.2899 39.8112 33.6924 37.4087 33.6924 34.451V33.6853H46.71C47.983 33.6853 49.0072 34.7094 49.0072 35.9825ZM37.1383 44.4056C37.1383 43.3527 36.2768 42.4912 35.2239 42.4912C34.171 42.4912 33.3096 43.3527 33.3096 44.4056C33.3096 45.4585 34.171 46.3199 35.2239 46.3199C36.2768 46.3199 37.1383 45.4585 37.1383 44.4056ZM43.2641 44.4056C43.2641 43.3527 42.4027 42.4912 41.3498 42.4912C40.2969 42.4912 39.4355 43.3527 39.4355 44.4056C39.4355 45.4585 40.2969 46.3199 41.3498 46.3199C42.4027 46.3199 43.2641 45.4585 43.2641 44.4056Z" fill="#0E71CC"/>
</g>
</svg>
