<svg width="20" height="20" viewBox="0 0 20 20" fill="none" xmlns="http://www.w3.org/2000/svg">
<g id="&#240;&#159;&#166;&#134; icon &#34;Copyright&#34;">
<path id="Vector" d="M10 20C4.47714 20 0 15.5229 0 10C0 4.47714 4.47714 0 10 0C15.5229 0 20 4.47714 20 10C20 15.5229 15.5229 20 10 20ZM10 1.93548C5.54306 1.93548 1.93548 5.54238 1.93548 10C1.93548 14.4569 5.54238 18.0645 10 18.0645C14.4569 18.0645 18.0645 14.4576 18.0645 10C18.0645 5.54307 14.4576 1.93548 10 1.93548ZM14.3287 6.01065C13.941 5.61903 12.4928 4.34145 10.1325 4.34145C6.80871 4.34145 4.46782 6.81827 4.46782 10.0498C4.46782 13.2414 6.89827 15.6708 10.1034 15.6708C12.3425 15.6708 13.6815 14.5974 14.0386 14.2684C14.1225 14.1913 14.1764 14.0869 14.1906 13.9738C14.2049 13.8607 14.1787 13.7462 14.1167 13.6506L13.3846 12.517C13.2297 12.2771 12.9021 12.2234 12.679 12.3992C12.3324 12.6725 11.3962 13.308 10.1908 13.308C8.24306 13.308 7.04899 11.8834 7.04899 10.0789C7.04899 8.40194 8.13319 6.70424 10.2053 6.70424C11.5221 6.70424 12.4974 7.47194 12.8556 7.80202C13.0681 7.99786 13.4038 7.96488 13.5741 7.73194L14.3751 6.63637C14.4434 6.54372 14.4763 6.42969 14.4677 6.31491C14.4592 6.20013 14.4099 6.0922 14.3287 6.01065Z" fill="#041749"/>
</g>
</svg>
